HIERARCHY
ROOT Hips
{
	OFFSET 0.000000 97.167313 0.000000
	CHANNELS 6 Xposition Yposition Zposition Xrotation Yrotation Zrotation
	JOINT Spine
	{
		OFFSET 0.000000 13.784798 0.064400
		CHANNELS 3 Xrotation Yrotation Zrotation
		JOINT Spine1
		{
			OFFSET 0.000000 12.037903 0.404700
			CHANNELS 3 Xrotation Yrotation Zrotation
			JOINT Spine2
			{
				OFFSET 0.000000 17.795601 0.420200
				CHANNELS 3 Xrotation Yrotation Zrotation
				JOINT Neck
				{
					OFFSET 0.000000 39.131302 11.954600
					CHANNELS 3 Xrotation Yrotation Zrotation
					JOINT Head
					{
						OFFSET 0.000000 14.456192 15.627699
						CHANNELS 3 Xrotation Yrotation Zrotation
						JOINT HeadTop_End
						{
							OFFSET 0.000000 15.703506 7.603401
							CHANNELS 3 Xrotation Yrotation Zrotation
							End Site
							{
								OFFSET 0.000000 17.447403 0.000000
							}
						}
					}
				}
				JOINT LeftShoulder
				{
					OFFSET 17.399500 24.608795 1.168800
					CHANNELS 3 Xrotation Yrotation Zrotation
					JOINT LeftArm
					{
						OFFSET 18.980635 5.765305 1.818600
						CHANNELS 3 Xrotation Yrotation Zrotation
						JOINT LeftForeArm
						{
							OFFSET 49.290169 0.000000 0.000000
							CHANNELS 3 Xrotation Yrotation Zrotation
							JOINT LeftHand
							{
								OFFSET 31.562012 0.000000 0.000000
								CHANNELS 3 Xrotation Yrotation Zrotation
								JOINT LeftHandThumb1
								{
									OFFSET 6.133995 -4.388519 7.076070
									CHANNELS 3 Xrotation Yrotation Zrotation
									JOINT LeftHandThumb2
									{
										OFFSET 6.037666 -3.485840 3.485847
										CHANNELS 3 Xrotation Yrotation Zrotation
										JOINT LeftHandThumb3
										{
											OFFSET 6.496506 -3.750763 3.750761
											CHANNELS 3 Xrotation Yrotation Zrotation
											JOINT LeftHandThumb4
											{
												OFFSET 5.616882 -3.242905 3.242910
												CHANNELS 3 Xrotation Yrotation Zrotation
												End Site
												{
													OFFSET -1.254608 7.132141 0.375429
												}
											}
										}
									}
								}
								JOINT LeftHandPinky1
								{
									OFFSET 18.920792 -0.453171 -11.426712
									CHANNELS 3 Xrotation Yrotation Zrotation
									JOINT LeftHandPinky2
									{
										OFFSET 4.919586 0.000000 0.000000
										CHANNELS 3 Xrotation Yrotation Zrotation
										JOINT LeftHandPinky3
										{
											OFFSET 5.233047 0.000000 0.000000
											CHANNELS 3 Xrotation Yrotation Zrotation
											JOINT LeftHandPinky4
											{
												OFFSET 5.571716 0.000000 0.000000
												CHANNELS 3 Xrotation Yrotation Zrotation
												End Site
												{
													OFFSET -3.459808 4.342407 -0.466164
												}
											}
										}
									}
								}
								JOINT LeftHandRing1
								{
									OFFSET 22.726120 -0.094986 -6.500475
									CHANNELS 3 Xrotation Yrotation Zrotation
									JOINT LeftHandRing2
									{
										OFFSET 6.408615 0.000000 0.000000
										CHANNELS 3 Xrotation Yrotation Zrotation
										JOINT LeftHandRing3
										{
											OFFSET 6.150223 0.000000 0.000000
											CHANNELS 3 Xrotation Yrotation Zrotation
											JOINT LeftHandRing4
											{
												OFFSET 6.145386 0.000000 0.000000
												CHANNELS 3 Xrotation Yrotation Zrotation
												End Site
												{
													OFFSET -3.671402 4.923981 -0.202372
												}
											}
										}
									}
								}
								JOINT LeftHandMiddle1
								{
									OFFSET 23.373947 0.000000 0.000001
									CHANNELS 3 Xrotation Yrotation Zrotation
									JOINT LeftHandMiddle2
									{
										OFFSET 6.996567 0.000000 0.000000
										CHANNELS 3 Xrotation Yrotation Zrotation
										JOINT LeftHandMiddle3
										{
											OFFSET 7.015945 0.000000 0.000000
											CHANNELS 3 Xrotation Yrotation Zrotation
											JOINT LeftHandMiddle4
											{
												OFFSET 7.721573 0.000000 0.000000
												CHANNELS 3 Xrotation Yrotation Zrotation
												End Site
												{
													OFFSET -4.651108 6.158463 0.251582
												}
											}
										}
									}
								}
								JOINT LeftHandIndex1
								{
									OFFSET 21.310577 -0.490082 6.209344
									CHANNELS 3 Xrotation Yrotation Zrotation
									JOINT LeftHandIndex2
									{
										OFFSET 7.536453 0.000000 0.000000
										CHANNELS 3 Xrotation Yrotation Zrotation
										JOINT LeftHandIndex3
										{
											OFFSET 7.512344 0.000000 0.000000
											CHANNELS 3 Xrotation Yrotation Zrotation
											JOINT LeftHandIndex4
											{
												OFFSET 10.212402 0.000000 0.000001
												CHANNELS 3 Xrotation Yrotation Zrotation
												End Site
												{
													OFFSET -5.180801 8.690506 1.388433
												}
											}
										}
									}
								}
							}
						}
					}
				}
				JOINT RightShoulder
				{
					OFFSET -17.399500 24.608795 1.168800
					CHANNELS 3 Xrotation Yrotation Zrotation
					JOINT RightArm
					{
						OFFSET -18.980635 5.765305 1.818600
						CHANNELS 3 Xrotation Yrotation Zrotation
						JOINT RightForeArm
						{
							OFFSET -49.290169 0.000000 0.000000
							CHANNELS 3 Xrotation Yrotation Zrotation
							JOINT RightHand
							{
								OFFSET -31.562012 0.000000 0.000000
								CHANNELS 3 Xrotation Yrotation Zrotation
								JOINT RightHandThumb1
								{
									OFFSET -6.133995 -4.388519 7.076070
									CHANNELS 3 Xrotation Yrotation Zrotation
									JOINT RightHandThumb2
									{
										OFFSET -6.037666 -3.485840 3.485847
										CHANNELS 3 Xrotation Yrotation Zrotation
										JOINT RightHandThumb3
										{
											OFFSET -6.496506 -3.750763 3.750761
											CHANNELS 3 Xrotation Yrotation Zrotation
											JOINT RightHandThumb4
											{
												OFFSET -5.616882 -3.242905 3.242910
												CHANNELS 3 Xrotation Yrotation Zrotation
												End Site
												{
													OFFSET 1.254608 7.132141 0.375429
												}
											}
										}
									}
								}
								JOINT RightHandIndex1
								{
									OFFSET -21.310577 -0.490082 6.209344
									CHANNELS 3 Xrotation Yrotation Zrotation
									JOINT RightHandIndex2
									{
										OFFSET -7.536453 0.000000 0.000000
										CHANNELS 3 Xrotation Yrotation Zrotation
										JOINT RightHandIndex3
										{
											OFFSET -7.512344 0.000000 0.000000
											CHANNELS 3 Xrotation Yrotation Zrotation
											JOINT RightHandIndex4
											{
												OFFSET -10.212402 0.000000 0.000001
												CHANNELS 3 Xrotation Yrotation Zrotation
												End Site
												{
													OFFSET 5.180801 8.690506 1.388433
												}
											}
										}
									}
								}
								JOINT RightHandMiddle1
								{
									OFFSET -23.373947 0.000000 0.000001
									CHANNELS 3 Xrotation Yrotation Zrotation
									JOINT RightHandMiddle2
									{
										OFFSET -6.996567 0.000000 0.000000
										CHANNELS 3 Xrotation Yrotation Zrotation
										JOINT RightHandMiddle3
										{
											OFFSET -7.015945 0.000000 0.000000
											CHANNELS 3 Xrotation Yrotation Zrotation
											JOINT RightHandMiddle4
											{
												OFFSET -7.721573 0.000000 0.000000
												CHANNELS 3 Xrotation Yrotation Zrotation
												End Site
												{
													OFFSET 4.651108 6.158463 0.251582
												}
											}
										}
									}
								}
								JOINT RightHandRing1
								{
									OFFSET -22.726120 -0.094986 -6.500475
									CHANNELS 3 Xrotation Yrotation Zrotation
									JOINT RightHandRing2
									{
										OFFSET -6.408615 0.000000 0.000000
										CHANNELS 3 Xrotation Yrotation Zrotation
										JOINT RightHandRing3
										{
											OFFSET -6.150223 0.000000 0.000000
											CHANNELS 3 Xrotation Yrotation Zrotation
											JOINT RightHandRing4
											{
												OFFSET -6.145386 0.000000 0.000000
												CHANNELS 3 Xrotation Yrotation Zrotation
												End Site
												{
													OFFSET 3.671402 4.923981 -0.202372
												}
											}
										}
									}
								}
								JOINT RightHandPinky1
								{
									OFFSET -18.920792 -0.453171 -11.426712
									CHANNELS 3 Xrotation Yrotation Zrotation
									JOINT RightHandPinky2
									{
										OFFSET -4.919586 0.000000 0.000000
										CHANNELS 3 Xrotation Yrotation Zrotation
										JOINT RightHandPinky3
										{
											OFFSET -5.233047 0.000000 0.000000
											CHANNELS 3 Xrotation Yrotation Zrotation
											JOINT RightHandPinky4
											{
												OFFSET -5.571716 0.000000 0.000000
												CHANNELS 3 Xrotation Yrotation Zrotation
												End Site
												{
													OFFSET 3.459808 4.342407 -0.466164
												}
											}
										}
									}
								}
							}
						}
					}
				}
			}
		}
	}
	JOINT LeftUpLeg
	{
		OFFSET 19.899099 -7.885101 -3.429500
		CHANNELS 3 Xrotation Yrotation Zrotation
		JOINT LeftLeg
		{
			OFFSET 1.745560 -36.997807 10.304700
			CHANNELS 3 Xrotation Yrotation Zrotation
			JOINT LeftFoot
			{
				OFFSET -1.745558 -29.803308 -13.615400
				CHANNELS 3 Xrotation Yrotation Zrotation
				JOINT LeftToeBase
				{
					OFFSET 1.181900 -18.539904 15.226099
					CHANNELS 3 Xrotation Yrotation Zrotation
					JOINT LeftToe_End
					{
						OFFSET -0.863701 1.402801 16.534700
						CHANNELS 3 Xrotation Yrotation Zrotation
						End Site
						{
							OFFSET 0.000000 16.616566 0.000000
						}
					}
				}
			}
		}
	}
	JOINT RightUpLeg
	{
		OFFSET -19.899099 -7.885101 -3.429500
		CHANNELS 3 Xrotation Yrotation Zrotation
		JOINT RightLeg
		{
			OFFSET -1.745560 -36.997807 10.304700
			CHANNELS 3 Xrotation Yrotation Zrotation
			JOINT RightFoot
			{
				OFFSET 1.745558 -29.803308 -13.615400
				CHANNELS 3 Xrotation Yrotation Zrotation
				JOINT RightToeBase
				{
					OFFSET -1.181900 -18.539904 15.226099
					CHANNELS 3 Xrotation Yrotation Zrotation
					JOINT RightToe_End
					{
						OFFSET 0.863701 1.402801 16.534700
						CHANNELS 3 Xrotation Yrotation Zrotation
						End Site
						{
							OFFSET 0.000000 16.616566 0.000000
						}
					}
				}
			}
		}
	}
}
MOTION
Frames: 4
Frame Time: 0.033333
-5.440495 39.743500 11.063631 24.319882 -27.177200 14.468788 7.047193 -0.816587 -1.222792 1.007063 -4.916565 -2.468046 0.988522 -4.827761 -2.551194 -1.976935 15.931133 10.995701 -14.784966 27.518422 -7.950058 0.000000 0.000000 -0.000000 1.501793 -21.506039 3.418559 -21.027478 -11.642063 -12.313029 -1.705504 -46.824447 -1.324730 -8.609471 -4.603462 18.817508 2.088562 -8.345712 8.780172 1.762189 21.350237 -1.846607 1.776618 5.529851 4.646133 0.000001 -0.000001 -0.000002 -5.650332 7.473337 -18.668200 0.253617 0.302045 -54.518628 0.293605 0.277750 -55.081074 -0.000000 0.000004 -0.000002 5.826926 2.808566 -21.805652 0.080151 0.366594 -38.919620 0.451267 0.862371 -52.027296 -0.000001 0.000001 -0.000000 8.179531 -0.836564 -6.631058 0.262017 0.708161 -39.788307 0.490148 0.254922 -55.601042 -0.000000 -0.000002 0.000002 13.640975 -0.670263 3.954125 -0.158267 0.313133 -42.349854 -0.136327 0.319169 -45.151003 0.000003 0.000002 -0.000004 -1.112253 2.998432 4.557012 -66.781553 -33.845780 15.183190 37.241367 116.360332 -34.158869 -10.742236 20.203013 -17.984325 2.208118 9.120178 -9.282979 -1.790869 -12.907982 5.674227 0.298937 -0.975417 -2.152618 0.000000 -0.000001 -0.000000 17.444494 11.264593 -14.178264 -0.099383 -0.288666 14.806426 -0.084519 -0.246628 18.651525 -0.000003 0.000002 0.000002 5.670701 2.727828 -7.580673 0.270872 -0.514867 20.010612 0.386273 0.044511 30.115557 0.000001 0.000001 -0.000006 -2.169866 -9.274033 3.004265 0.107467 -0.113416 19.249309 0.345234 -0.580696 25.884766 -0.000002 -0.000000 -0.000005 -11.253368 -17.584062 3.536517 0.175216 -0.113360 25.856364 0.196064 -0.085910 25.764754 -0.000002 -0.000001 0.000004 -62.770743 -48.638446 75.342956 63.269449 -26.306907 -59.991095 0.824943 -4.109163 -18.113114 -0.326858 0.004580 1.243885 -0.000000 -0.000000 0.000000 -49.418652 16.797204 -56.480033 110.563503 48.854519 21.212355 -42.714292 18.483323 -15.915278 -27.777579 -1.498686 3.967276 0.000000 -0.000001 -0.000000 
-5.571115 39.589424 11.119822 24.165228 -27.040483 14.447732 7.231226 -0.857764 -1.380368 0.998872 -4.908219 -2.437411 0.953508 -4.815550 -2.498852 -2.047453 15.738247 10.923609 -14.523422 27.552884 -7.925336 -0.000000 0.000000 0.000000 1.569201 -21.613698 3.280051 -20.195478 -11.705703 -11.681708 -2.389243 -46.849524 -1.824314 -8.621363 -4.522504 18.996204 2.088560 -8.345717 8.780172 1.694768 21.149119 -1.928308 1.654535 4.949979 4.377868 -0.000003 -0.000000 0.000000 -5.648814 7.471060 -18.056937 0.249202 0.298641 -53.419855 0.288738 0.274276 -53.896490 0.000003 -0.000001 -0.000004 5.833996 2.799271 -21.152150 0.075307 0.361026 -37.734999 0.444797 0.857234 -50.746854 -0.000001 -0.000002 0.000005 8.193022 -0.847070 -5.925984 0.257396 0.702398 -38.507845 0.483391 0.250386 -54.226200 -0.000000 0.000000 0.000009 13.631080 -0.663865 4.716050 -0.159134 0.312006 -40.974967 -0.136989 0.317155 -43.711664 -0.000001 0.000001 -0.000001 -1.042466 3.136031 4.730846 -66.231415 -33.869566 15.266178 37.119701 116.439849 -34.023115 -10.374086 20.230503 -17.994743 2.362256 9.194802 -9.475141 -1.727989 -13.018069 5.602000 0.347482 -1.152264 -2.274619 -0.000000 0.000000 0.000001 17.602373 11.360089 -14.214366 -0.100378 -0.294297 14.094281 -0.085812 -0.251067 18.037112 -0.000003 -0.000001 0.000001 5.606924 2.855992 -7.408394 0.271407 -0.510636 19.770008 0.388463 0.050856 29.705224 0.000002 0.000001 -0.000009 -2.556520 -9.272913 3.315442 0.106721 -0.109396 19.100894 0.346324 -0.576346 25.469466 0.000002 0.000002 -0.000007 -12.038880 -17.685805 3.787189 0.178123 -0.110933 26.188472 0.196384 -0.083178 25.724895 -0.000003 -0.000001 -0.000001 -62.748825 -48.665938 75.413280 62.996822 -26.539723 -60.209887 0.849001 -3.958814 -18.160389 -0.326858 0.004582 1.243885 0.000000 0.000001 0.000000 -49.754380 16.742325 -57.165364 110.856798 49.120965 21.310419 -41.609769 18.742978 -16.444722 -28.293797 -1.535789 3.944320 -0.000000 -0.000001 -0.000000 
-5.699053 39.447227 11.175610 24.010738 -26.901830 14.426580 7.399503 -0.901254 -1.535625 0.992505 -4.917562 -2.427270 0.922871 -4.821371 -2.466426 -2.136435 15.540057 10.891660 -14.263601 27.569814 -7.868828 -0.000001 -0.000000 -0.000001 1.647231 -21.721726 3.168426 -19.386911 -11.724351 -11.030079 -2.916859 -46.875735 -2.210559 -8.635448 -4.387327 19.131403 2.088561 -8.345714 8.780175 1.628698 20.952772 -2.008235 1.531559 4.378380 4.112284 -0.000002 -0.000000 0.000001 -5.648788 7.469586 -17.464297 0.244941 0.295314 -52.346778 0.284074 0.270684 -52.727548 0.000003 0.000001 0.000001 5.840670 2.790660 -20.513870 0.070611 0.355314 -36.566087 0.438570 0.851943 -49.464500 -0.000001 0.000003 0.000005 8.206451 -0.857236 -5.230203 0.252955 0.696429 -37.225511 0.476755 0.245535 -52.818191 -0.000001 0.000000 0.000004 13.621902 -0.657803 5.479129 -0.160206 0.310843 -39.566996 -0.137694 0.315178 -42.182183 0.000001 -0.000002 -0.000002 -0.973800 3.198295 4.844011 -65.497013 -33.940252 15.544402 36.986629 116.527453 -33.874361 -9.915278 20.212512 -17.871390 2.517862 9.307278 -9.687654 -1.585366 -13.303292 5.442425 0.546659 -1.838822 -2.654621 -0.000000 -0.000003 0.000001 17.761142 11.409917 -14.190939 -0.101663 -0.298739 13.612887 -0.087159 -0.255119 17.603993 -0.000001 -0.000001 -0.000002 5.492204 2.949829 -7.145522 0.273211 -0.506796 19.801629 0.391709 0.057092 29.540377 0.000000 0.000001 -0.000008 -3.042278 -9.322480 3.693608 0.106308 -0.106443 19.339168 0.349416 -0.571383 25.401262 0.000002 -0.000002 -0.000003 -12.926597 -17.857583 4.100009 0.182039 -0.108908 26.937211 0.200813 -0.080136 26.210981 0.000001 -0.000004 0.000005 -62.737098 -48.688157 75.454247 62.728082 -26.759250 -60.414649 0.870478 -3.809550 -18.207935 -0.326858 0.004579 1.243885 -0.000000 0.000001 -0.000000 -50.113665 16.697422 -57.809615 111.165222 49.340173 21.363508 -40.506488 18.963221 -16.947735 -28.807006 -1.572385 3.921400 -0.000000 -0.000001 -0.000000 
-5.824095 39.305496 11.231985 23.859731 -26.765642 14.405859 7.549237 -0.938676 -1.678640 0.989424 -4.935887 -2.426708 0.899464 -4.835913 -2.445686 -2.233225 15.355794 10.891081 -14.059147 27.553962 -7.792094 -0.000001 -0.000000 -0.000001 1.724855 -21.742053 3.054761 -18.627196 -11.886966 -10.414143 -3.183642 -46.758454 -2.401157 -8.668494 -4.180088 19.208068 2.088563 -8.345712 8.780172 1.565146 20.764170 -2.085176 1.409936 3.824855 3.854077 0.000001 -0.000001 -0.000002 -5.650111 7.468776 -16.898600 0.240978 0.292298 -51.316103 0.279728 0.267030 -51.594648 0.000000 -0.000002 -0.000002 5.846895 2.782773 -19.900779 0.066255 0.349699 -35.433225 0.432752 0.846559 -48.206317 -0.000001 0.000001 0.000003 8.219572 -0.867038 -4.555901 0.248729 0.690566 -35.967377 0.470485 0.240542 -51.411691 0.000003 -0.000002 0.000004 13.613587 -0.652091 6.227826 -0.161275 0.309699 -38.160489 -0.138458 0.313182 -40.610478 -0.000000 0.000001 -0.000001 -0.907578 3.211193 4.889759 -64.646948 -34.076814 15.949171 36.756021 116.681173 -33.616470 -9.372211 20.091905 -17.616409 2.671734 9.447737 -9.912813 -1.381739 -13.725228 5.216371 0.863900 -2.953079 -3.245107 0.000001 0.000001 -0.000001 17.962035 11.408292 -14.076352 -0.103673 -0.301198 13.426895 -0.088331 -0.258994 17.374261 0.000000 -0.000003 -0.000002 5.334636 3.014444 -6.806372 0.278771 -0.502388 20.228553 0.396739 0.064074 29.728525 -0.000000 0.000000 -0.000001 -3.597829 -9.416860 4.117181 0.107215 -0.103391 19.898740 0.358894 -0.563039 25.809284 -0.000002 -0.000002 -0.000000 -13.878990 -18.090506 4.453053 0.187762 -0.106417 28.008072 0.207289 -0.077015 27.134851 0.000005 -0.000001 0.000000 -62.757670 -48.717673 75.453380 62.437997 -27.005159 -60.625107 0.876904 -3.604319 -18.237097 -0.326858 0.004582 1.243885 -0.000000 0.000000 0.000000 -50.496446 16.651472 -58.441762 111.484888 49.540021 21.385983 -39.406517 19.167589 -17.442732 -29.307324 -1.607744 3.898834 -0.000000 -0.000003 0.000000 
